# xmcd
#
# Track frame offsets:
# 150
# 24524
# 49757
# 73657
# 98378
# 121351
# 142548
# 165728
# 188334
# 210771
#
# Disc length: 3049 seconds
#
# Revision: 1
# Processed by: cddbd v1.5.2PL0 Copyright (c) Steve Scherf et al.
# Submitted via: Easy CD Ripper 2.3.12
#
DISCID=700be70a
DTITLE=Roald Dahl - danny the champion of the world - disk 3
DYEAR=2005
DGENRE=Blues
TTITLE0=01 - Roald Dahl
TTITLE1=02 - Roald Dahl
TTITLE2=03 - Roald Dahl
TTITLE3=04 - Roald Dahl
TTITLE4=05 - Roald Dahl
TTITLE5=06 - Roald Dahl
TTITLE6=07 - Roald Dahl
TTITLE7=08 - Roald Dahl
TTITLE8=09 - Roald Dahl
TTITLE9=10 - Roald Dahl
EXTD=
EXTT0=
EXTT1=
EXTT2=
EXTT3=
EXTT4=
EXTT5=
EXTT6=
EXTT7=
EXTT8=
EXTT9=
PLAYORDER=
